<svg width="359" height="388" viewBox="0 0 359 388" fill="none" xmlns="http://www.w3.org/2000/svg">
<path d="M152.161 318.705C217.195 335.437 285.508 288.391 304.744 213.624C323.981 138.858 286.856 64.6838 221.822 47.9515C156.789 31.2193 88.4744 78.2652 69.238 153.032C50.0016 227.798 87.1278 301.973 152.161 318.705Z" stroke="#D1E8F7" stroke-width="2.21701" stroke-miterlimit="10"/>
<path d="M110.421 83.9605C112.712 84.5499 115.118 82.8928 115.796 80.2593C116.473 77.6258 115.166 75.0135 112.875 74.4242C110.585 73.8349 108.178 75.4916 107.501 78.1251C106.823 80.7586 108.131 83.3712 110.421 83.9605Z" fill="#FEBB94"/>
<path d="M302.191 223.548C304.482 224.138 306.89 222.481 307.567 219.848C308.245 217.214 306.936 214.601 304.644 214.012C302.356 213.423 299.948 215.08 299.271 217.713C298.593 220.347 299.902 222.959 302.191 223.548Z" fill="#5661AE"/>
<path d="M155.764 324.715C158.055 325.305 160.461 323.648 161.138 321.015C161.816 318.381 160.508 315.768 158.218 315.179C155.927 314.59 153.521 316.247 152.844 318.88C152.166 321.513 153.474 324.126 155.764 324.715Z" fill="#1C85E8"/>
<path d="M163.508 285.909C212.021 298.391 262.982 263.296 277.331 207.522C291.681 151.748 263.986 96.416 215.473 83.9342C166.96 71.4523 115.999 106.547 101.649 162.321C87.2993 218.095 114.994 273.427 163.508 285.909Z" stroke="#D1E8F7" stroke-width="1.65384" stroke-miterlimit="10"/>
<path d="M269.677 231.034C271.385 231.473 273.18 230.237 273.686 228.273C274.191 226.308 273.216 224.36 271.507 223.92C269.798 223.48 268.003 224.716 267.498 226.681C266.993 228.645 267.968 230.594 269.677 231.034Z" fill="#FEBB94"/>
<path d="M97.3396 205.469C99.0484 205.908 100.843 204.672 101.349 202.708C101.854 200.743 100.879 198.795 99.1699 198.355C97.4613 197.915 95.6664 199.151 95.161 201.116C94.6556 203.08 95.631 205.029 97.3396 205.469Z" fill="#5661AE"/>
<path d="M172.483 87.9705C174.192 88.4101 175.987 87.1741 176.492 85.2094C176.998 83.2452 176.022 81.2963 174.313 80.8566C172.605 80.4171 170.81 81.6531 170.304 83.6174C169.799 85.582 170.774 87.5309 172.483 87.9705Z" fill="#1C85E8"/>
<path d="M206.436 308.515L104.993 282.415C100.592 281.282 98.4228 276.351 100.148 271.4L170.75 68.7497C172.475 63.7988 177.441 60.7032 181.842 61.8355L283.285 87.9354C287.686 89.0677 289.855 93.9991 288.13 98.95L217.528 301.6C215.803 306.551 210.837 309.647 206.436 308.515Z" fill="#1C85E8"/>
<path d="M199.287 306.675L97.8438 280.575C93.4431 279.443 91.2737 274.512 92.9984 269.561L163.601 66.9103C165.326 61.9595 170.292 58.8638 174.693 59.9962L276.136 86.096C280.536 87.2282 282.706 92.1597 280.981 97.1106L210.379 299.761C208.654 304.712 203.688 307.808 199.287 306.675Z" fill="url(#paint0_linear_6_603)"/>
<path d="M197.214 298.801L104.611 274.976C100.533 273.926 98.5219 269.356 100.12 264.768L166.486 74.2776C168.085 69.6895 172.687 66.821 176.766 67.8703L269.368 91.6957C273.447 92.7451 275.458 97.315 273.859 101.903L207.493 292.394C205.894 296.982 201.293 299.85 197.214 298.801Z" fill="white"/>
<path d="M236.311 177.615L136.998 151.955C136.589 151.864 136.208 151.673 135.88 151.395C135.553 151.118 135.286 150.761 135.098 150.348C134.91 149.935 134.805 149.475 134.791 149C134.776 148.524 134.851 148.043 135.013 147.589L157.958 80.5998C158.309 79.6381 158.951 78.8315 159.764 78.3318C160.576 77.8317 161.502 77.6736 162.368 77.8864L261.681 103.546C262.09 103.638 262.471 103.829 262.799 104.106C263.126 104.384 263.393 104.74 263.581 105.154C263.769 105.567 263.874 106.027 263.889 106.502C263.903 106.978 263.828 107.459 263.666 107.912L240.721 174.902C240.37 175.864 239.728 176.67 238.915 177.17C238.103 177.67 237.177 177.828 236.311 177.615Z" fill="url(#paint1_linear_6_603)"/>
<path d="M214.23 250.477L172.243 239.675C171.932 239.602 171.642 239.453 171.394 239.239C171.146 239.025 170.945 238.749 170.806 238.432C170.666 238.114 170.59 237.762 170.584 237.398C170.578 237.035 170.641 236.668 170.769 236.325L191.554 176.664C191.822 175.927 192.312 175.308 192.933 174.921C193.554 174.534 194.263 174.406 194.928 174.562L236.915 185.364C237.226 185.437 237.516 185.585 237.764 185.8C238.012 186.014 238.212 186.29 238.352 186.607C238.492 186.925 238.568 187.277 238.574 187.641C238.58 188.004 238.517 188.371 238.389 188.714L217.603 248.375C217.335 249.111 216.845 249.731 216.225 250.118C215.604 250.505 214.895 250.632 214.23 250.477Z" fill="url(#paint2_linear_6_603)"/>
<path d="M212.874 214.267C218.944 210.297 221.573 202.215 218.746 196.215C215.918 190.215 208.706 188.57 202.636 192.54C196.566 196.51 193.937 204.592 196.765 210.592C199.592 216.592 206.804 218.237 212.874 214.267Z" stroke="#EF6A77" stroke-width="13.5228" stroke-miterlimit="10"/>
<path d="M199.347 214.027C195.92 211.067 194.623 205.791 196.467 200.499C198.91 193.486 205.945 189.101 212.179 190.705" stroke="white" stroke-width="13.5228" stroke-miterlimit="10" stroke-linecap="round"/>
<path d="M195.544 224.944L204.182 227.166" stroke="white" stroke-width="6.92203" stroke-miterlimit="10" stroke-linecap="round"/>
<path d="M191.71 235.948L200.348 238.171" stroke="white" stroke-width="6.92203" stroke-miterlimit="10" stroke-linecap="round"/>
<path opacity="0.4" d="M189.042 229.198L206.894 233.792" stroke="white" stroke-width="6.92203" stroke-miterlimit="10" stroke-linecap="round"/>
<path d="M162.882 237.266L120.896 226.464C120.584 226.391 120.294 226.242 120.046 226.028C119.799 225.814 119.598 225.538 119.458 225.221C119.319 224.903 119.243 224.551 119.237 224.187C119.23 223.824 119.294 223.458 119.422 223.114L140.207 163.453C140.475 162.716 140.965 162.097 141.586 161.71C142.206 161.323 142.915 161.195 143.581 161.351L185.568 172.153C185.879 172.226 186.169 172.374 186.416 172.589C186.664 172.803 186.865 173.079 187.005 173.396C187.145 173.714 187.22 174.066 187.226 174.43C187.233 174.793 187.17 175.16 187.041 175.503L166.256 235.164C165.988 235.9 165.498 236.52 164.877 236.907C164.257 237.294 163.548 237.422 162.882 237.266Z" fill="#FEBB94"/>
<path d="M161.527 201.056C167.596 197.086 170.225 189.003 167.398 183.004C164.571 177.004 157.358 175.359 151.288 179.329C145.218 183.299 142.59 191.381 145.417 197.381C148.244 203.381 155.457 205.026 161.527 201.056Z" stroke="#EF6A77" stroke-width="13.5228" stroke-miterlimit="10"/>
<path d="M167.696 193.097C165.253 200.11 158.218 204.495 151.984 202.891C145.749 201.287 142.676 194.301 145.119 187.288C147.563 180.275 154.597 175.89 160.832 177.494" stroke="white" stroke-width="13.5228" stroke-miterlimit="10" stroke-linecap="round"/>
<path d="M144.197 211.733L152.835 213.955" stroke="white" stroke-width="6.92203" stroke-miterlimit="10" stroke-linecap="round"/>
<path d="M140.362 222.737L149.001 224.96" stroke="white" stroke-width="6.92203" stroke-miterlimit="10" stroke-linecap="round"/>
<path opacity="0.4" d="M137.695 215.987L155.546 220.581" stroke="white" stroke-width="6.92203" stroke-miterlimit="10" stroke-linecap="round"/>
<path d="M199.49 293.182L105.902 269.103C105.607 269.034 105.333 268.893 105.098 268.69C104.863 268.487 104.673 268.226 104.54 267.925C104.408 267.624 104.336 267.29 104.33 266.945C104.324 266.601 104.384 266.254 104.505 265.928L115.891 233.247C116.145 232.549 116.61 231.961 117.198 231.595C117.786 231.228 118.458 231.107 119.089 231.254L212.676 255.333C212.972 255.401 213.246 255.542 213.481 255.746C213.716 255.949 213.906 256.21 214.038 256.511C214.171 256.812 214.242 257.146 214.248 257.49C214.254 257.835 214.194 258.182 214.073 258.508L202.687 291.189C202.433 291.887 201.969 292.474 201.381 292.841C200.792 293.208 200.12 293.329 199.49 293.182Z" fill="url(#paint3_linear_6_603)"/>
<path d="M114.412 263.036L119.794 247.586" stroke="white" stroke-width="13.5228" stroke-miterlimit="10" stroke-linecap="round"/>
<path d="M126.945 254.467L123.174 265.29" stroke="white" stroke-width="13.5228" stroke-miterlimit="10" stroke-linecap="round"/>
<path d="M134.419 260.418L131.936 267.544" stroke="white" stroke-width="13.5228" stroke-miterlimit="10" stroke-linecap="round"/>
<path d="M147.48 250.334L140.698 269.799" stroke="white" stroke-width="13.5228" stroke-miterlimit="10" stroke-linecap="round"/>
<path d="M151.943 264.927L149.46 272.053" stroke="white" stroke-width="13.5228" stroke-miterlimit="10" stroke-linecap="round"/>
<path d="M164.704 255.702L158.222 274.308" stroke="white" stroke-width="13.5228" stroke-miterlimit="10" stroke-linecap="round"/>
<path d="M169.676 268.837L166.984 276.562" stroke="white" stroke-width="13.5228" stroke-miterlimit="10" stroke-linecap="round"/>
<path d="M177.18 274.701L175.747 278.816" stroke="white" stroke-width="13.5228" stroke-miterlimit="10" stroke-linecap="round"/>
<path d="M189.891 265.621L184.509 281.071" stroke="white" stroke-width="13.5228" stroke-miterlimit="10" stroke-linecap="round"/>
<path d="M200.703 261.992L193.271 283.325" stroke="white" stroke-width="13.5228" stroke-miterlimit="10" stroke-linecap="round"/>
<path d="M147.716 143.643L150.538 154.469C150.666 154.957 150.613 155.496 150.392 155.968C150.171 156.439 149.8 156.806 149.359 156.987L148.346 157.403C146.649 158.1 144.828 158.093 143.219 157.383C141.611 156.673 140.326 155.309 139.602 153.544L135.03 142.391L147.716 143.643Z" fill="#FFCCB3"/>
<path d="M142.765 146.256C142.765 146.256 142.734 154.445 146.012 157.918C147.144 157.727 148.265 157.415 149.359 156.987L147.152 147.384" fill="#FCBA9F"/>
<path d="M43.8888 157.678L67.4765 151.611C69.699 151.04 71.7768 149.784 73.4739 147.988L102.718 117.03C104.538 115.102 106.795 113.801 109.193 113.294L141.601 106.453L121.681 158.373L121.065 160.321C121.065 160.321 107.637 181.003 86.8868 184.433L51.7037 197.717L43.8888 157.678Z" fill="#FFCCB3"/>
<path d="M69.6231 150.825C69.6231 150.825 72.1806 181.382 86.8868 184.433L75.9319 188.569C75.9319 188.569 46.173 173.753 64.2352 152.393L69.6231 150.825Z" fill="#FCBA9F"/>
<path d="M134.604 115.21C134.604 115.21 122.619 119.675 118.933 136.238L132.487 134.134L134.604 115.21Z" fill="#FCBA9F"/>
<path d="M154.088 145.283L156.911 156.108C157.038 156.597 156.985 157.135 156.765 157.607C156.544 158.079 156.172 158.445 155.731 158.627L154.718 159.043C153.021 159.74 151.2 159.732 149.592 159.023C147.983 158.313 146.698 156.949 145.974 155.183L141.402 144.03L154.088 145.283Z" fill="#FFCCB3"/>
<path d="M230.883 169.023L131.57 143.363C131.161 143.271 130.78 143.081 130.452 142.803C130.125 142.526 129.858 142.169 129.67 141.756C129.482 141.343 129.377 140.883 129.362 140.407C129.348 139.932 129.423 139.451 129.584 138.998L152.53 72.0077C152.881 71.046 153.523 70.2393 154.336 69.7397C155.148 69.2399 156.074 69.0815 156.94 69.2943L256.253 94.9547C256.662 95.0463 257.043 95.2373 257.371 95.5144C257.698 95.7914 257.965 96.1486 258.153 96.5615C258.341 96.9749 258.446 97.4348 258.46 97.9103C258.475 98.3862 258.399 98.8669 258.239 99.3202L235.293 166.31C234.942 167.272 234.3 168.078 233.488 168.578C232.675 169.078 231.749 169.236 230.883 169.023Z" fill="#1C85E8"/>
<path d="M147.161 110.023C147.161 110.023 156.611 110.244 157.773 115.672C158.935 121.099 158.68 130.666 165.365 131.144C172.05 131.622 183.014 109.261 189.236 111.092C195.458 112.922 189.265 127.821 196.042 129.795C202.819 131.769 203.882 122.6 208.372 124.018C213.819 125.739 207.038 143.561 214.185 145.63C221.332 147.7 228.8 123.545 239.578 126.776" stroke="white" stroke-width="8.75132" stroke-miterlimit="10" stroke-linecap="round"/>
<path d="M159.722 82.2183L177.195 86.7327" stroke="white" stroke-width="13.8806" stroke-miterlimit="10" stroke-linecap="round"/>
<path opacity="0.4" d="M156.63 91.2431L192.739 100.573" stroke="white" stroke-width="13.8806" stroke-miterlimit="10" stroke-linecap="round"/>
<path d="M108.742 137.237L123.145 134.062L138.808 127.188C142.928 125.381 150.397 126.01 152.011 130.412C153.654 134.89 148.774 141.656 144.774 144.029L129.62 153.022L121.064 160.321L108.742 137.237Z" fill="#FFCCB3"/>
<path d="M137.934 131.104C137.934 131.104 137.692 139.173 141.813 141.64L147.726 138.262C148.311 137.975 148.847 137.56 149.3 137.042C149.752 136.524 150.113 135.914 150.36 135.25C150.606 134.586 150.734 133.88 150.734 133.177C150.734 132.474 150.608 131.788 150.362 131.161C149.932 130.065 149.161 129.204 148.185 128.732C147.209 128.26 146.093 128.207 145.036 128.583L137.934 131.104Z" stroke="#FF967C" stroke-width="3.47042" stroke-linecap="round"/>
<path d="M68.5041 150.87C68.5041 150.87 60.8103 170.54 79.3099 187.696C79.3099 187.696 59.6829 200.005 53.0265 201.211C46.3705 202.417 31.2057 168.688 43.2448 154.856C46.621 150.977 68.5041 150.87 68.5041 150.87Z" fill="#1C85E8"/>
<path d="M155.434 150.443C155.434 150.443 147.007 148.484 143.64 149.489L142.261 146.126L155.174 149.449L155.434 150.443Z" fill="#FCBA9F"/>
<path d="M309.864 189.344L250.306 174.021C245.819 172.866 243.58 167.832 245.304 162.776L279.989 61.0811C281.713 56.0258 286.748 52.8629 291.234 54.0172L350.792 69.3408C355.281 70.4955 357.517 75.5292 355.793 80.5845L321.108 182.28C319.384 187.335 314.349 190.498 309.864 189.344Z" fill="#FEBB94"/>
<path d="M317.764 123.305C329.865 115.359 335.047 99.1496 329.343 87.1016C323.639 75.0533 309.205 71.7278 297.106 79.6741C285.006 87.6205 279.822 103.829 285.527 115.878C291.232 127.926 305.666 131.252 317.764 123.305Z" fill="white"/>
<path d="M308.489 102.622L319.407 122.145C319.407 122.145 323.889 118.817 325.677 116.074L308.489 102.622Z" fill="url(#paint4_linear_6_603)"/>
<path d="M317.233 72.7645L308.012 99.801C307.835 100.291 307.786 100.82 307.871 101.321C307.956 101.822 308.171 102.274 308.49 102.622L325.435 120.825C325.435 120.825 347.421 85.2883 317.233 72.7645Z" fill="#1C85E8"/>
<path d="M266.339 138.993L291.013 145.341" stroke="white" stroke-width="13.8817" stroke-miterlimit="10" stroke-linecap="round"/>
<path d="M258.499 161.98L283.173 168.329" stroke="white" stroke-width="13.8817" stroke-miterlimit="10" stroke-linecap="round"/>
<path opacity="0.4" d="M262.464 150.357L313.453 163.476" stroke="white" stroke-width="13.8817" stroke-miterlimit="10" stroke-linecap="round"/>
<path d="M216.953 246.932C216.953 246.932 225.534 246.54 228.419 252.869C228.419 252.869 236.436 253.238 238.277 258.9C238.277 258.9 244.907 261.085 246.047 264.75C247.605 265.426 248.949 266.569 249.941 268.063C250.933 269.557 251.539 271.35 251.696 273.257C252.255 278.729 243.256 307.221 238.759 317.103C237.634 319.575 237.101 322.299 237.215 324.989L237.914 341.596L201.659 348.802L199.908 323.861C199.908 323.861 195.016 304.234 194.472 300.829C193.928 297.423 202.725 272.589 202.262 255.542L216.953 246.932Z" fill="#FFCCB3"/>
<path d="M200.859 337.411L200.647 334.38C200.647 334.38 217.706 337.457 237.215 324.989L237.434 330.197C237.434 330.197 232.978 339.691 223.17 342.182C213.361 344.674 200.859 337.411 200.859 337.411Z" fill="#FCBA9F"/>
<path d="M200.859 337.411C200.859 337.411 220.579 344.747 237.434 330.197C237.434 330.197 241.27 334.102 243.087 355.931C243.645 362.636 202.251 375.346 198.813 364.751C198.813 364.751 196.945 351.329 200.859 337.411Z" fill="#5661AE"/>
<path d="M201.779 265.637C201.779 265.637 199.983 269.721 196.678 268.871C194.521 268.316 186.01 262.665 180.352 258.802C178.813 257.751 176.992 257.283 175.136 257.46C173.281 257.638 171.48 258.453 169.978 259.794L169.453 260.263C169.192 260.495 168.973 260.781 168.807 261.105C168.642 261.428 168.534 261.782 168.491 262.144C168.447 262.506 168.469 262.87 168.554 263.212C168.64 263.556 168.787 263.87 168.988 264.138C173.179 269.736 184.481 284.911 185.766 287.478C187.347 290.636 196.125 308.321 196.125 308.321L201.779 265.637Z" fill="#FFCCB3"/>
<path d="M202.119 261.17C202.119 261.17 206.17 273.421 204.578 275.465C202.986 277.509 194.321 267.777 194.321 267.777C194.321 267.777 202.131 272.452 202.119 261.17Z" fill="#FCBA9F"/>
<path d="M202.262 255.542L201.105 212.929C201.066 211.468 201.287 209.992 201.757 208.589C202.227 207.187 202.936 205.887 203.841 204.767C204.746 203.646 205.83 202.727 207.027 202.065C208.224 201.402 209.511 201.01 210.811 200.911C211.875 200.83 212.903 201.19 213.7 201.924C214.497 202.658 215.009 203.715 215.139 204.895L220.243 251.144L202.262 255.542Z" fill="#FFCCB3"/>
<path d="M201.76 237.063C201.926 237.754 202.219 238.39 202.621 238.929C203.022 239.47 203.524 239.902 204.095 240.2" stroke="#FF967C" stroke-width="3.47042" stroke-linecap="round"/>
<path d="M211.078 217.798C212.642 217.449 214.422 216.857 215.374 215.876L214.113 203.232C214.087 202.96 214.009 202.701 213.885 202.473C213.76 202.244 213.593 202.052 213.393 201.908C213.193 201.764 212.965 201.672 212.725 201.638C212.484 201.604 212.237 201.628 211.999 201.71C210.235 202.322 207.783 203.614 207.04 206.183L207.795 215.111C207.833 215.547 207.949 215.964 208.135 216.337C208.322 216.71 208.576 217.032 208.883 217.283C209.189 217.534 209.542 217.708 209.919 217.797C210.296 217.886 210.69 217.886 211.078 217.798Z" stroke="#FF967C" stroke-width="3.47042" stroke-linecap="round"/>
<path d="M219.833 247.424L221.198 258.357" stroke="#FF967C" stroke-width="3.47042" stroke-linecap="round"/>
<path d="M228.523 253.112C229.67 256.907 229.732 261.088 228.702 265.09" stroke="#FF967C" stroke-width="3.47042" stroke-linecap="round"/>
<path d="M238.417 259.134C238.417 259.134 239.051 264.843 238.156 268.999" stroke="#FF967C" stroke-width="3.47042" stroke-linecap="round"/>
<path d="M246.243 265.13C246.456 267.525 246.145 269.982 245.337 272.289" stroke="#FF967C" stroke-width="3.47042" stroke-linecap="round"/>
<path d="M176.087 271.138C176.087 271.138 179.298 268.331 178.937 266.415C178.576 264.5 175.636 261.166 173.51 260.899C172.484 260.817 171.441 260.944 170.43 261.275C170.248 261.329 170.078 261.436 169.938 261.584C169.798 261.732 169.691 261.916 169.63 262.118C169.569 262.32 169.554 262.534 169.588 262.737C169.622 262.941 169.703 263.127 169.823 263.277L176.087 271.138Z" stroke="#FF967C" stroke-width="3.47042" stroke-linecap="round"/>
<path d="M125.251 302.369L54.1328 284.071C53.8376 284.002 53.5633 283.861 53.3282 283.658C53.0931 283.454 52.903 283.193 52.7707 282.893C52.6381 282.592 52.5666 282.257 52.5607 281.913C52.5545 281.568 52.6143 281.222 52.736 280.896L64.1219 248.215C64.3758 247.516 64.8402 246.929 65.4284 246.562C66.0167 246.196 66.6884 246.075 67.3192 246.222L138.438 264.52C138.733 264.588 139.007 264.729 139.242 264.933C139.477 265.135 139.667 265.396 139.8 265.697C139.932 265.999 140.004 266.333 140.01 266.677C140.016 267.022 139.956 267.369 139.835 267.694L128.449 300.375C128.194 301.074 127.73 301.661 127.142 302.028C126.554 302.394 125.882 302.516 125.251 302.369Z" fill="#FEBB94"/>
<path d="M68.5206 255.817L112.411 267.11" stroke="#EF6A77" stroke-width="13.5228" stroke-miterlimit="10" stroke-linecap="round"/>
<path d="M68.5206 255.817L99.0202 263.665" stroke="white" stroke-width="13.5228" stroke-miterlimit="10" stroke-linecap="round"/>
<path d="M65.1288 266.279L109.019 277.571" stroke="#EF6A77" stroke-width="13.5228" stroke-miterlimit="10" stroke-linecap="round"/>
<path d="M65.1288 266.279L83.3635 270.971" stroke="white" stroke-width="13.5228" stroke-miterlimit="10" stroke-linecap="round"/>
<path d="M60.9586 276.54L104.849 287.833" stroke="#EF6A77" stroke-width="13.5228" stroke-miterlimit="10" stroke-linecap="round"/>
<path d="M60.9586 276.54L72.1099 279.409" stroke="white" stroke-width="13.5228" stroke-miterlimit="10" stroke-linecap="round"/>
<path d="M127.171 274.122C128.62 274.494 130.141 273.447 130.57 271.782C130.998 270.117 130.171 268.465 128.723 268.092C127.275 267.719 125.753 268.767 125.325 270.432C124.896 272.097 125.723 273.749 127.171 274.122Z" fill="white"/>
<path d="M123.706 284.069C125.154 284.441 126.675 283.394 127.104 281.729C127.532 280.063 126.706 278.411 125.257 278.039C123.808 277.666 122.287 278.714 121.859 280.379C121.43 282.044 122.257 283.696 123.706 284.069Z" fill="white"/>
<path d="M119.902 294.92C121.35 295.293 122.872 294.245 123.3 292.58C123.728 290.915 122.901 289.263 121.453 288.89C120.005 288.517 118.483 289.565 118.055 291.23C117.626 292.895 118.453 294.548 119.902 294.92Z" fill="white"/>
<defs>
<linearGradient id="paint0_linear_6_603" x1="218.842" y1="-5.11916" x2="204.06" y2="556.532" gradientUnits="userSpaceOnUse">
<stop stop-color="white"/>
<stop offset="1" stop-color="#94B9FF"/>
</linearGradient>
<linearGradient id="paint1_linear_6_603" x1="206.357" y1="89.0121" x2="176.734" y2="253.574" gradientUnits="userSpaceOnUse">
<stop stop-color="white"/>
<stop offset="1" stop-color="#94B9FF"/>
</linearGradient>
<linearGradient id="paint2_linear_6_603" x1="211.887" y1="178.755" x2="195.299" y2="323.808" gradientUnits="userSpaceOnUse">
<stop stop-color="white"/>
<stop offset="1" stop-color="#94B9FF"/>
</linearGradient>
<linearGradient id="paint3_linear_6_603" x1="161.775" y1="242.138" x2="143.901" y2="325.858" gradientUnits="userSpaceOnUse">
<stop stop-color="white"/>
<stop offset="1" stop-color="#94B9FF"/>
</linearGradient>
<linearGradient id="paint4_linear_6_603" x1="317.699" y1="104.952" x2="312.043" y2="139.076" gradientUnits="userSpaceOnUse">
<stop stop-color="white"/>
<stop offset="1" stop-color="#94B9FF"/>
</linearGradient>
</defs>
</svg>
