<svg width="125" height="35" viewBox="0 0 125 35" fill="none" xmlns="http://www.w3.org/2000/svg">
<path d="M7.61615 34.4683C5.11872 34.4683 3.23003 33.7659 1.9501 32.3611C0.67016 30.925 0.0301923 28.8803 0.0301923 26.2267V24.3537H4.90019V26.6013C4.90019 28.7242 5.7899 29.7856 7.56933 29.7856C8.44343 29.7856 9.09901 29.5358 9.53606 29.0363C10.0043 28.5056 10.2385 27.6628 10.2385 26.5077C10.2385 25.1341 9.92628 23.9322 9.30192 22.902C8.67756 21.8406 7.5225 20.5763 5.83673 19.109C3.71391 17.236 2.23106 15.5502 1.38817 14.0517C0.545288 12.5221 0.123846 10.8051 0.123846 8.90077C0.123846 6.30968 0.779423 4.31173 2.09058 2.90692C3.40173 1.4709 5.30603 0.752885 7.80346 0.752885C10.2697 0.752885 12.1271 1.4709 13.3759 2.90692C14.6558 4.31173 15.2958 6.3409 15.2958 8.99442V10.3524H10.4258V8.66664C10.4258 7.54279 10.2072 6.73112 9.77019 6.23163C9.33314 5.70093 8.69317 5.43558 7.85029 5.43558C6.1333 5.43558 5.27481 6.48138 5.27481 8.57298C5.27481 9.75926 5.58699 10.8675 6.21135 11.8977C6.86692 12.9279 8.0376 14.1766 9.72337 15.6438C11.8774 17.5169 13.3603 19.2183 14.1719 20.748C14.9836 22.2777 15.3894 24.0727 15.3894 26.1331C15.3894 28.8178 14.7182 30.8782 13.3759 32.3142C12.0647 33.7503 10.1448 34.4683 7.61615 34.4683ZM25.7883 34.4683C23.2596 34.4683 21.3241 33.7503 19.9818 32.3142C18.6394 30.8782 17.9682 28.849 17.9682 26.2267V8.99442C17.9682 6.37212 18.6394 4.34295 19.9818 2.90692C21.3241 1.4709 23.2596 0.752885 25.7883 0.752885C28.3169 0.752885 30.2525 1.4709 31.5948 2.90692C32.9372 4.34295 33.6084 6.37212 33.6084 8.99442V26.2267C33.6084 28.849 32.9372 30.8782 31.5948 32.3142C30.2525 33.7503 28.3169 34.4683 25.7883 34.4683ZM25.7883 29.7856C27.5677 29.7856 28.4574 28.7086 28.4574 26.5545V8.66664C28.4574 6.5126 27.5677 5.43558 25.7883 5.43558C24.0089 5.43558 23.1192 6.5126 23.1192 8.66664V26.5545C23.1192 28.7086 24.0089 29.7856 25.7883 29.7856ZM44.5842 34.4683C42.0867 34.4683 40.1824 33.7659 38.8713 32.3611C37.5601 30.925 36.9046 28.8803 36.9046 26.2267V1.22115H42.0555V26.6013C42.0555 27.7252 42.274 28.5369 42.7111 29.0363C43.1794 29.5358 43.8349 29.7856 44.6778 29.7856C45.5207 29.7856 46.1607 29.5358 46.5977 29.0363C47.066 28.5369 47.3001 27.7252 47.3001 26.6013V1.22115H52.2638V26.2267C52.2638 28.8803 51.6082 30.925 50.2971 32.3611C48.9859 33.7659 47.0816 34.4683 44.5842 34.4683ZM59.8212 1.22115H66.7984L72.1367 34H66.9857L66.0492 27.4911V27.5847H60.1958L59.2593 34H54.483L59.8212 1.22115ZM65.4405 23.1362L63.1459 6.93404H63.0523L60.8046 23.1362H65.4405ZM74.6357 1.22115H82.2685C84.922 1.22115 86.8575 1.84551 88.075 3.09423C89.2925 4.31173 89.9013 6.20042 89.9013 8.76029V10.7738C89.9013 14.1766 88.7774 16.3306 86.5298 17.236V17.3296C87.7785 17.7042 88.6526 18.4691 89.1521 19.6241C89.6828 20.7792 89.9481 22.3245 89.9481 24.26V30.0197C89.9481 30.9563 89.9793 31.7211 90.0418 32.3142C90.1042 32.8762 90.2603 33.4381 90.51 34H85.2654C85.0781 33.4693 84.9532 32.9698 84.8908 32.5015C84.8284 32.0333 84.7972 31.1904 84.7972 29.9729V23.979C84.7972 22.4806 84.5474 21.4348 84.0479 20.8416C83.5797 20.2485 82.7524 19.9519 81.5661 19.9519H79.7867V34H74.6357V1.22115ZM81.6598 15.2692C82.6899 15.2692 83.4548 15.0039 83.9543 14.4732C84.485 13.9425 84.7503 13.0528 84.7503 11.804V9.27539C84.7503 8.0891 84.5318 7.23061 84.0948 6.69991C83.6889 6.1692 83.0333 5.90385 82.128 5.90385H79.7867V15.2692H81.6598ZM97.4576 5.90385H92.0725V1.22115H107.994V5.90385H102.609V34H97.4576V5.90385ZM110.488 1.22115H124.536V5.90385H115.639V14.5668H122.709V19.2495H115.639V29.3173H124.536V34H110.488V1.22115Z" fill="#08213F"/>
</svg>
