<svg width="179" height="49" viewBox="0 0 179 49" fill="none" xmlns="http://www.w3.org/2000/svg">
<path d="M11.3088 48.669C7.74103 48.669 5.0429 47.6655 3.21442 45.6587C1.38594 43.6072 0.471703 40.6861 0.471703 36.8953V34.2195H7.42885V37.4305C7.42885 40.4631 8.69986 41.9794 11.2419 41.9794C12.4906 41.9794 13.4272 41.6226 14.0515 40.9091C14.7205 40.1509 15.0549 38.9468 15.0549 37.2967C15.0549 35.3344 14.609 33.6174 13.717 32.1457C12.8251 30.6294 11.175 28.8233 8.76676 26.7272C5.73416 24.0514 3.6158 21.6431 2.41168 19.5025C1.20755 17.3172 0.605494 14.8644 0.605494 12.144C0.605494 8.4424 1.54203 5.58819 3.41511 3.58132C5.28819 1.52985 8.00861 0.504122 11.5764 0.504122C15.0995 0.504122 17.7531 1.52985 19.5369 3.58132C21.3654 5.58819 22.2797 8.487 22.2797 12.2777V14.2177H15.3225V11.8095C15.3225 10.204 15.0103 9.04446 14.386 8.33091C13.7616 7.57276 12.8474 7.19368 11.6433 7.19368C9.19043 7.19368 7.96401 8.68768 7.96401 11.6757C7.96401 13.3704 8.40998 14.9536 9.30192 16.4253C10.2385 17.897 11.9109 19.6809 14.3191 21.7769C17.3963 24.4527 19.5147 26.8833 20.6742 29.0685C21.8337 31.2538 22.4135 33.8181 22.4135 36.7615C22.4135 40.5969 21.4546 43.5403 19.5369 45.5918C17.6639 47.6432 14.9212 48.669 11.3088 48.669ZM37.269 48.669C33.6566 48.669 30.8916 47.6432 28.9739 45.5918C27.0563 43.5403 26.0974 40.6415 26.0974 36.8953V12.2777C26.0974 8.53159 27.0563 5.63278 28.9739 3.58132C30.8916 1.52985 33.6566 0.504122 37.269 0.504122C40.8813 0.504122 43.6464 1.52985 45.564 3.58132C47.4817 5.63278 48.4406 8.53159 48.4406 12.2777V36.8953C48.4406 40.6415 47.4817 43.5403 45.564 45.5918C43.6464 47.6432 40.8813 48.669 37.269 48.669ZM37.269 41.9794C39.811 41.9794 41.082 40.4408 41.082 37.3636V11.8095C41.082 8.73228 39.811 7.19368 37.269 7.19368C34.727 7.19368 33.4559 8.73228 33.4559 11.8095V37.3636C33.4559 40.4408 34.727 41.9794 37.269 41.9794ZM64.1203 48.669C60.5525 48.669 57.8321 47.6655 55.959 45.6587C54.0859 43.6072 53.1494 40.6861 53.1494 36.8953V1.17308H60.5079V37.4305C60.5079 39.036 60.8201 40.1955 61.4444 40.9091C62.1134 41.6226 63.0499 41.9794 64.254 41.9794C65.4582 41.9794 66.3724 41.6226 66.9968 40.9091C67.6657 40.1955 68.0002 39.036 68.0002 37.4305V1.17308H75.0911V36.8953C75.0911 40.6861 74.1546 43.6072 72.2815 45.6587C70.4084 47.6655 67.688 48.669 64.1203 48.669ZM85.8874 1.17308H95.8549L103.481 48H96.1225L94.7846 38.7015V38.8353H86.4226L85.0847 48H78.2614L85.8874 1.17308ZM93.9149 32.4802L90.637 9.33434H90.5032L87.2923 32.4802H93.9149ZM107.051 1.17308H117.955C121.746 1.17308 124.511 2.06502 126.25 3.8489C127.989 5.58819 128.859 8.28631 128.859 11.9433V14.8198C128.859 19.6809 127.253 22.7581 124.043 24.0514V24.1852C125.826 24.7203 127.075 25.813 127.789 27.4631C128.547 29.1131 128.926 31.3207 128.926 34.0857V42.3139C128.926 43.6518 128.97 44.7444 129.06 45.5918C129.149 46.3945 129.372 47.1973 129.729 48H122.236C121.969 47.2418 121.79 46.5283 121.701 45.8593C121.612 45.1904 121.567 43.9863 121.567 42.247V33.6843C121.567 31.5437 121.211 30.0497 120.497 29.2023C119.828 28.355 118.646 27.9313 116.952 27.9313H114.41V48H107.051V1.17308ZM117.085 21.2418C118.557 21.2418 119.65 20.8627 120.363 20.1045C121.121 19.3464 121.5 18.0754 121.5 16.2915V12.6791C121.5 10.9844 121.188 9.75801 120.564 8.99987C119.984 8.24171 119.048 7.86264 117.754 7.86264H114.41V21.2418H117.085ZM139.654 7.86264H131.961V1.17308H154.705V7.86264H147.012V48H139.654V7.86264ZM158.268 1.17308H178.337V7.86264H165.626V20.2383H175.728V26.9279H165.626V41.3104H178.337V48H158.268V1.17308Z" fill="#08213F"/>
</svg>
